<svg xmlns="http://www.w3.org/2000/svg" viewBox="0 0 1000 460" font-family="Segoe UI, Arial, sans-serif">
  <rect width="1000" height="460" fill="#1a1b26"/>

  <!-- Left: Seed Healthy (4) -->
  <rect x="20" y="20" width="460" height="400" rx="10" fill="#2d2f3f" stroke="#414868"/>
  <rect x="20" y="20" width="460" height="34" rx="10" fill="#123328"/>
  <text x="36" y="42" fill="#9ece6a" font-size="12" font-weight="800">SEED HEALTHY (4)</text>
  <text x="440" y="42" fill="#9ece6a" font-size="11" text-anchor="end">&#9654;</text>

  <g font-size="11">
    <circle cx="52" cy="86" r="5" fill="#9ece6a"/>
    <text x="66" y="90" fill="#c0caf5" font-weight="700">ERP Sales API</text>
    <text x="66" y="104" fill="#9aa5ce" font-size="9" font-family="Consolas, monospace">api.xerox.com/v1/sales &#183; OAuth2</text>
    <text x="440" y="90" fill="#9ece6a" font-size="9" font-family="Consolas, monospace" text-anchor="end">130ms</text>

    <line x1="36" y1="122" x2="464" y2="122" stroke="#414868" stroke-opacity="0.5"/>

    <circle cx="52" cy="146" r="5" fill="#9ece6a"/>
    <text x="66" y="150" fill="#c0caf5" font-weight="700">HR Portal Service</text>
    <text x="66" y="164" fill="#9aa5ce" font-size="9" font-family="Consolas, monospace">10.0.0.15/api/health &#183; NTLM</text>
    <text x="440" y="150" fill="#9ece6a" font-size="9" font-family="Consolas, monospace" text-anchor="end">225ms</text>

    <line x1="36" y1="182" x2="464" y2="182" stroke="#414868" stroke-opacity="0.5"/>

    <circle cx="52" cy="206" r="5" fill="#9ece6a"/>
    <text x="66" y="210" fill="#c0caf5" font-weight="700">Finance Reporting</text>
    <text x="66" y="224" fill="#9aa5ce" font-size="9" font-family="Consolas, monospace">finance.xerox.internal &#183; Basic</text>
    <text x="440" y="210" fill="#9ece6a" font-size="9" font-family="Consolas, monospace" text-anchor="end">92ms</text>

    <line x1="36" y1="242" x2="464" y2="242" stroke="#414868" stroke-opacity="0.5"/>

    <circle cx="52" cy="266" r="5" fill="#9ece6a"/>
    <text x="66" y="270" fill="#c0caf5" font-weight="700">Inventory Sync</text>
    <text x="66" y="284" fill="#9aa5ce" font-size="9" font-family="Consolas, monospace">inventory.xerox.local:7777 &#183; No Auth</text>
    <text x="440" y="270" fill="#9ece6a" font-size="9" font-family="Consolas, monospace" text-anchor="end">315ms</text>
  </g>

  <rect x="36" y="360" width="428" height="40" rx="7" fill="#123328" stroke="#1d4a3a"/>
  <text x="250" y="384" fill="#9ece6a" font-size="10" font-weight="700" text-anchor="middle">4 of 4 online &#183; Fleet health 100%</text>

  <!-- Right: Seed Mixed -->
  <rect x="520" y="20" width="460" height="400" rx="10" fill="#2d2f3f" stroke="#414868"/>
  <rect x="520" y="20" width="460" height="34" rx="10" fill="#3a2c11"/>
  <text x="536" y="42" fill="#e0af68" font-size="12" font-weight="800">SEED MIXED (2 GOOD, 2 ERR)</text>

  <g font-size="11">
    <circle cx="552" cy="86" r="5" fill="#9ece6a"/>
    <text x="566" y="90" fill="#c0caf5" font-weight="700">ERP Sales API</text>
    <text x="566" y="104" fill="#9aa5ce" font-size="9" font-family="Consolas, monospace">api.xerox.com/v1/sales &#183; OAuth2</text>
    <text x="940" y="90" fill="#9ece6a" font-size="9" font-family="Consolas, monospace" text-anchor="end">130ms</text>

    <line x1="536" y1="122" x2="964" y2="122" stroke="#414868" stroke-opacity="0.5"/>

    <circle cx="552" cy="146" r="5" fill="#f7768e"/>
    <text x="566" y="150" fill="#c0caf5" font-weight="700">HR Portal Service</text>
    <text x="566" y="164" fill="#9aa5ce" font-size="9" font-family="Consolas, monospace">10.0.0.15/api/health &#183; NTLM</text>
    <text x="940" y="150" fill="#f7768e" font-size="9" font-weight="700" text-anchor="end">3 failures</text>

    <line x1="536" y1="182" x2="964" y2="182" stroke="#414868" stroke-opacity="0.5"/>

    <circle cx="552" cy="206" r="5" fill="#f7768e"/>
    <text x="566" y="210" fill="#c0caf5" font-weight="700">Finance Reporting</text>
    <text x="566" y="224" fill="#9aa5ce" font-size="9" font-family="Consolas, monospace">finance.xerox.internal &#183; Basic</text>
    <text x="940" y="210" fill="#f7768e" font-size="9" font-weight="700" text-anchor="end">5 failures</text>

    <line x1="536" y1="242" x2="964" y2="242" stroke="#414868" stroke-opacity="0.5"/>

    <circle cx="552" cy="266" r="5" fill="#9ece6a"/>
    <text x="566" y="270" fill="#c0caf5" font-weight="700">Inventory Sync</text>
    <text x="566" y="284" fill="#9aa5ce" font-size="9" font-family="Consolas, monospace">inventory.xerox.local:7777 &#183; No Auth</text>
    <text x="940" y="270" fill="#9ece6a" font-size="9" font-family="Consolas, monospace" text-anchor="end">315ms</text>
  </g>

  <rect x="536" y="360" width="428" height="40" rx="7" fill="#3a1620" stroke="#552233"/>
  <text x="750" y="384" fill="#f7768e" font-size="10" font-weight="700" text-anchor="middle">2 of 4 online &#183; Fleet health 50% &#183; triggers SMTP/webhook alerts</text>

  <text x="20" y="440" fill="#5c6488" font-size="10" font-style="italic">Mockup — the two Danger Zone seed options as they appear in the Endpoint Status Cockpit, using the app's real demo endpoint names.</text>
</svg>
