<svg xmlns="http://www.w3.org/2000/svg" viewBox="0 0 1200 780" font-family="Segoe UI, Arial, sans-serif">
  <rect width="1200" height="780" fill="#1a1b26"/>

  <!-- Sidebar -->
  <rect x="0" y="0" width="200" height="780" fill="#1a1b26" stroke="#414868" stroke-width="1"/>
  <rect x="16" y="16" width="20" height="20" rx="5" fill="#e51937"/>
  <text x="44" y="31" fill="#e51937" font-size="15" font-weight="800">xerox</text>
  <text x="90" y="31" fill="#9aa5ce" font-size="9" font-weight="700" letter-spacing="1">MONITOR</text>
  <line x1="0" y1="52" x2="200" y2="52" stroke="#414868"/>
  <text x="46" y="90" fill="#9aa5ce" font-size="12" font-weight="600">Dashboard</text>
  <text x="46" y="132" fill="#9aa5ce" font-size="12" font-weight="600">Endpoint Registry</text>
  <text x="46" y="174" fill="#9aa5ce" font-size="12" font-weight="600">Notification &amp; JSON</text>
  <rect x="12" y="194" width="176" height="34" rx="9" fill="#7aa2f7"/>
  <text x="46" y="216" fill="#0b1020" font-size="12" font-weight="700">Reports</text>
  <text x="16" y="756" fill="#9aa5ce" font-size="9" font-weight="700">v1.0.0 (GUI v2.0)</text>

  <!-- Header -->
  <rect x="200" y="0" width="1000" height="54" fill="#24283b" stroke="#414868" stroke-width="1"/>
  <text x="222" y="31" fill="#6b7394" font-size="10" font-family="Consolas, monospace">Fleet performance &amp; exports</text>

  <!-- Summary strip -->
  <rect x="222" y="72" width="756" height="46" rx="10" fill="#1e2230" stroke="#414868"/>
  <text x="238" y="100" fill="#9aa5ce" font-size="10">Fleet health: <tspan fill="#e0af68" font-weight="700" font-family="Consolas, monospace">60%</tspan>   Avg response: <tspan fill="#9ece6a" font-weight="700" font-family="Consolas, monospace">184ms</tspan>   Monitored: <tspan fill="#c0caf5" font-weight="700" font-family="Consolas, monospace">5</tspan></text>
  <rect x="864" y="82" width="98" height="26" rx="6" fill="#12141f" stroke="#414868"/>
  <text x="874" y="99" fill="#9aa5ce" font-size="9.5" font-weight="700">&#8681; Export CSV</text>

  <!-- Card 1: down -->
  <rect x="222" y="132" width="756" height="122" rx="10" fill="#2d2f3f" stroke="#414868"/>
  <rect x="222" y="132" width="4" height="122" fill="#f7768e"/>
  <text x="242" y="156" fill="#c0caf5" font-size="11" font-weight="700">SAP ERP Gateway</text>
  <rect x="382" y="146" width="46" height="16" rx="4" fill="#232a4a"/>
  <text x="389" y="158" fill="#7aa2f7" font-size="9" font-weight="700">NTLM</text>
  <rect x="900" y="144" width="60" height="20" rx="10" fill="#3a1620"/>
  <text x="912" y="158" fill="#f7768e" font-size="9" font-weight="700">Down</text>
  <text x="242" y="172" fill="#9aa5ce" font-size="9" font-family="Consolas, monospace">sap-erp.internal.xerox.com/health</text>
  <polyline points="242,232 320,226 400,230 480,238 560,242 640,246 720,248 800,250 880,250 960,252" fill="none" stroke="#f7768e" stroke-width="2"/>
  <text x="242" y="248" fill="#6b7394" font-size="8.5" font-style="italic">11 checks &#183; ~5 min interval &#183; last ~55 min</text>

  <!-- Card 2: degraded -->
  <rect x="222" y="264" width="756" height="122" rx="10" fill="#2d2f3f" stroke="#414868"/>
  <rect x="222" y="264" width="4" height="122" fill="#e0af68"/>
  <text x="242" y="288" fill="#c0caf5" font-size="11" font-weight="700">Print Fleet API</text>
  <rect x="360" y="278" width="66" height="16" rx="4" fill="#232a4a"/>
  <text x="367" y="290" fill="#7aa2f7" font-size="9" font-weight="700">API KEY</text>
  <rect x="900" y="276" width="60" height="20" rx="10" fill="#3a2c11"/>
  <text x="905" y="290" fill="#e0af68" font-size="9" font-weight="700">Online</text>
  <text x="242" y="304" fill="#9aa5ce" font-size="9" font-family="Consolas, monospace">10.0.0.12/api/v1/status</text>
  <polyline points="242,376 320,372 400,360 480,356 560,344 640,348 720,336 800,344 880,340 960,332" fill="none" stroke="#e0af68" stroke-width="2"/>
  <text x="242" y="380" fill="#6b7394" font-size="8.5" font-style="italic">11 checks &#183; ~5 min interval &#183; last ~55 min</text>

  <!-- Card 3: online -->
  <rect x="222" y="396" width="756" height="122" rx="10" fill="#2d2f3f" stroke="#414868"/>
  <rect x="222" y="396" width="4" height="122" fill="#9ece6a"/>
  <text x="242" y="420" fill="#c0caf5" font-size="11" font-weight="700">Inventory Sync Service</text>
  <rect x="428" y="410" width="76" height="16" rx="4" fill="#232a4a"/>
  <text x="436" y="422" fill="#7aa2f7" font-size="9" font-weight="700">CERTIFICATE</text>
  <rect x="900" y="408" width="60" height="20" rx="10" fill="#123328"/>
  <text x="905" y="422" fill="#9ece6a" font-size="9" font-weight="700">Online</text>
  <text x="242" y="436" fill="#9aa5ce" font-size="9" font-family="Consolas, monospace">inv-sync.internal:8443/health</text>
  <polyline points="242,470 320,472 400,468 480,470 560,466 640,468 720,464 800,468 880,466 960,467" fill="none" stroke="#9ece6a" stroke-width="2"/>
  <text x="242" y="512" fill="#6b7394" font-size="8.5" font-style="italic">11 checks &#183; ~5 min interval &#183; last ~55 min</text>

  <text x="222" y="548" fill="#5c6488" font-size="10" font-style="italic">Mockup — matches the shipped Reports layout; not a live capture.</text>
</svg>
